<?xml version="1.0" standalone="no"?>
<!DOCTYPE svg PUBLIC "-//W3C//DTD SVG 1.1//EN" "http://www.w3.org/Graphics/SVG/1.1/DTD/svg11.dtd" >
<svg xmlns="http://www.w3.org/2000/svg">
<metadata>
Created by FontPrep 20130207 at Wed Apr  9 00:37:32 2014
 By May Tee-Galloway
Copyright (c) 2014 by Mun May Tee. All rights reserved.
</metadata>
<defs>
<font id="633e7c004ffb97aefd105429fc7330b4" horiz-adv-x='1024' >
  <font-face 
    font-family="Wikicon-Regular"
    font-weight="400"
    font-stretch="normal"
    units-per-em="2048"
    panose-1="0 0 5 0 0 0 0 0 0 0"
    ascent="1638"
    descent="-410"
    x-height="1105"
    cap-height="1244"
    bbox="-379 -508 2017 1591"
    underline-thickness="50"
    underline-position="-50"
    unicode-range="U+0020-E900"
  />
<missing-glyph 
 />
    <glyph glyph-name=".notdef" 
 />
    <glyph glyph-name=".null" horiz-adv-x="0" 
 />
    <glyph glyph-name="nonmarkingreturn" horiz-adv-x="682" 
 />
    <glyph glyph-name="space" unicode=" " 
 />
    <glyph glyph-name="A" unicode="A" horiz-adv-x="600" 
d="M-183 208q26 -18 78 -70l1000 906q-27 47 -82 65zM-290 249l1108 995q124 -21 220 -124t103 -229l-1110 -998l-410 -44z" />
    <glyph glyph-name="W" unicode="W" 
d="M474 1075q0 -22 -9 -31q-85 -10 -99 -39t24 -108l337 -767h8l204 417l-155 329q-47 98 -68 123t-39 32t-49 12q-9 9 -10 31t8 30q40 -2 166 -2t165 2q8 -8 8 -30t-8 -31q-56 -9 -58 -39t38 -109l90 -184l8 -8l99 183q43 79 43 106q0 28 -14 38t-43 13q-6 9 -6 31t8 31
q37 -1 141 -1t138 1q9 -9 9 -31t-9 -30q-70 -10 -106 -54t-75 -117l-134 -256l236 -485h8l348 755q37 75 22 113t-101 44q-8 8 -8 30t8 31q240 -3 342 0q9 -8 9 -30t-9 -31q-75 -8 -111 -54q-37 -46 -69 -117l-433 -935q-12 -22 -20 -32t-23 -10q-29 0 -42 42l-249 532
l-272 -532q-16 -42 -42 -42t-42 42l-401 939q-43 101 -65 126q-21 27 -42 33t-58 8q-9 8 -10 30t8 31q250 -4 395 0q9 -8 9 -30z" />
    <glyph glyph-name="w" unicode="w" 
d="M474 1075q0 -22 -9 -31q-85 -10 -99 -39t24 -108l337 -767h8l204 417l-155 329q-47 98 -68 123t-39 32t-49 12q-9 9 -10 31t8 30q40 -2 166 -2t165 2q8 -8 8 -30t-8 -31q-56 -9 -58 -39t38 -109l90 -184l8 -8l99 183q43 79 43 106q0 28 -14 38t-43 13q-6 9 -6 31t8 31
q37 -1 141 -1t138 1q9 -9 9 -31t-9 -30q-70 -10 -106 -54t-75 -117l-134 -256l236 -485h8l348 755q37 75 22 113t-101 44q-8 8 -8 30t8 31q240 -3 342 0q9 -8 9 -30t-9 -31q-75 -8 -111 -54q-37 -46 -69 -117l-433 -935q-12 -22 -20 -32t-23 -10q-29 0 -42 42l-249 532
l-272 -532q-16 -42 -42 -42t-42 42l-401 939q-43 101 -65 126q-21 27 -42 33t-58 8q-9 8 -10 30t8 31q250 -4 395 0q9 -8 9 -30z" />
    <glyph glyph-name="uniE000" unicode="&#xe000;" horiz-adv-x="1301" 
d="M528 1176q-88 0 -164 -54t-110 -132t-23 -170t75 -163q94 -94 222 -99t226 89q56 55 78 127t6 142q-15 69 -53 128q-38 60 -104 96q-65 36 -153 36zM536 1406q222 0 371 -148t169 -338q20 -188 -84 -346l-2 -1l361 -361l-61 -61q-42 -43 -102 -43t-102 43l-258 258
q-158 -103 -350 -81t-326 155q-104 104 -140 243q-36 138 1 278t141 244q160 158 382 158z" />
    <glyph glyph-name="uniE001" unicode="&#xe001;" horiz-adv-x="1418" 
d="M476 914h798q60 0 102 -42t42 -102v-84h-942v-307l-476 403l476 439v-307z" />
    <glyph glyph-name="uniE002" unicode="&#xe002;" horiz-adv-x="1451" 
d="M1290 1272q60 0 102 -43l59 -59l-956 -956l-495 495l160 161l335 -333l693 692q42 43 102 43z" />
    <glyph glyph-name="uniE003" unicode="&#xe003;" horiz-adv-x="1153" 
d="M1033 1142q0 -60 -42 -102l-291 -290l393 -392l-162 -162l-392 393l-392 -393l-60 60q-42 42 -42 102t42 102l291 290l-378 378l161 161l378 -378l392 393l60 -60q42 -42 42 -102z" />
    <glyph glyph-name="uniE004" unicode="&#xe004;" horiz-adv-x="1384" 
d="M1112 1048l-122 122l-298 -298l-286 287l-123 -122l287 -287l-298 -298l123 -122l297 298l298 -298l122 122l-297 298zM692 1442q141 0 269 -55q129 -55 221 -147t147 -221q55 -128 55 -269t-55 -269q-55 -129 -147 -221t-221 -147q-128 -55 -269 -55t-269 55
q-129 55 -221 147t-147 221q-55 128 -55 269t55 269q55 129 147 221t221 147q128 55 269 55z" />
    <glyph glyph-name="uniE005" unicode="&#xe005;" horiz-adv-x="1504" 
d="M869 917l-117 239l-118 -239l-265 -38l192 -186l-46 -264l237 123l237 -124l-46 265l191 186zM520 1074l232 472l232 -472l520 -75l-376 -366l89 -519l-465 244l-465 -242l89 517l-376 366z" />
    <glyph glyph-name="uniE006" unicode="&#xe006;" horiz-adv-x="1504" 
d="M520 1074l232 472l232 -472l520 -75l-376 -366l89 -519l-465 244l-465 -242l89 517l-376 366z" />
    <glyph glyph-name="uniE007" unicode="&#xe007;" horiz-adv-x="1490" 
d="M1265 1272q0 -42 -29 -70l-119 -120l-71 71l189 190q30 -29 30 -71zM1222 831h268v-1q0 -40 -29 -70t-70 -30h-169v101zM695 1525h1q41 0 70 -29t29 -70v-168h-100v267zM1235 261q-41 0 -70 29l-119 119l71 71l189 -189q-30 -30 -71 -30zM252 1303q42 0 71 -29l119 -119
l-71 -71l-189 190q28 29 70 29zM99 831h169v-101h-268v1q0 41 29 71t70 29zM695 303h100v-268h-1q-41 -1 -70 29t-29 71v168zM223 289q0 41 29 70l119 119l71 -70l-189 -190q-30 30 -30 71zM745 1124q142 0 243 -101t101 -243t-101 -242t-242 -101t-243 101t-102 243
t101 242t243 101z" />
    <glyph glyph-name="uniE008" unicode="&#xe008;" horiz-adv-x="1374" 
d="M778 968l-91 255l-90 -255l-244 116l116 -243l-254 -91l254 -90l-116 -244l244 116l90 -254l91 254l243 -116l-115 244l254 90l-254 91l115 243zM688 1437q186 0 344 -92t250 -250q92 -159 92 -345t-92 -344t-250 -251q-158 -92 -322 -92q-164 1 -290 55
q-127 54 -219 146q-93 92 -147 219t-54 291t92 321q92 158 250 250q160 92 346 92z" />
    <glyph glyph-name="uniE009" unicode="&#xe009;" horiz-adv-x="1469" 
d="M848 142h-86q-59 0 -101 42t-42 101v325l-619 648h1469l-621 -650v-466z" />
    <glyph glyph-name="uniE010" unicode="&#xe010;" horiz-adv-x="1831" 
d="M916 858q73 0 125 -52t52 -125t-52 -125q-51 -52 -125 -53q-74 1 -126 53t-52 125t52 125t126 52zM916 354q134 0 230 96t96 230t-96 231q-96 96 -230 96t-230 -96q-96 -97 -96 -231t96 -230t230 -96zM904 1203q92 0 186 -30t178 -73q83 -44 173 -104q137 -92 242 -182
q105 -91 148 -134l-57 -54q-128 -124 -366 -284q-114 -76 -248 -130q-136 -54 -242 -54t-214 30t-192 72q-86 44 -171 104q-139 98 -231 194t-110 122l24 29q48 60 142 147q94 86 176 142t168 101q88 46 195 75t199 29z" />
    <glyph glyph-name="uniE011" unicode="&#xe011;" horiz-adv-x="1867" 
d="M1021 69h-172v253q-105 8 -206 35l-87 -230l-161 61l85 226q-101 46 -182 104l-152 -181l-132 110l153 182q-93 92 -167 213l90 52q46 28 98 19t86 -50q121 -149 294 -231q174 -82 368 -82t366 82t295 231q33 41 85 50t99 -19l83 -54q-67 -113 -161 -209l164 -196
l-131 -110l-164 194q-85 -61 -179 -104l89 -234l-161 -61l-90 237q-102 -28 -210 -35v-253z" />
    <glyph glyph-name="uniE012" unicode="&#xe012;" horiz-adv-x="980" 
d="M258 964v302h-66q-36 0 -61 -25t-25 -61v-216h152zM143 1371h721q48 0 82 -34t34 -82v-1326l-360 240l-349 -240v930h-271v369q0 59 42 101t101 42z" />
    <glyph glyph-name="uniE013" unicode="&#xe013;" horiz-adv-x="1592" 
d="M1165 1039v221h-672q-25 0 -41 -16t-16 -41v-164h729zM1160 99v548h-739v-548h739zM476 1360h784v-321h189q59 -1 101 -43t42 -101v-640h-332v-255h-940v255h-220q-40 -1 -70 29t-30 71v684h333v178q0 59 42 101t101 42z" />
    <glyph glyph-name="uniE014" unicode="&#xe014;" horiz-adv-x="1466" 
d="M653 1449q89 0 152 -63t63 -153h318v-318h5q89 0 152 -63t63 -152t-63 -152t-152 -63h-5v-318l-318 -1q0 -89 -63 -152t-152 -63t-152 63t-63 153h-318v294q98 0 168 70t70 169t-70 169t-168 70v294l318 1q0 89 63 152t152 63z" />
    <glyph glyph-name="uniE015" unicode="&#xe015;" horiz-adv-x="1375" 
d="M755 1217h-167v-560l381 -218l18 19q51 56 36 116q-9 30 -41 50t-227 130v463zM688 1437q140 -1 267 -55t219 -146t146 -219t55 -267q-1 -140 -55 -267t-146 -219t-219 -146t-267 -55q-140 1 -268 55t-219 146q-93 92 -147 219t-54 267t54 267t147 219q91 92 219 146
t268 55z" />
    <glyph glyph-name="uniE016" unicode="&#xe016;" horiz-adv-x="1277" 
d="M930 1156q-48 0 -82 -34t-33 -80q-1 -48 33 -82t82 -33q48 -1 80 33q34 34 34 82t-34 80q-32 34 -80 34zM930 574q-48 0 -82 -34t-33 -81q-1 -47 33 -81t82 -34t80 34q34 34 34 81t-34 81q-32 34 -80 34zM348 1156q-48 0 -82 -34t-33 -80q-1 -48 33 -82t82 -33
q48 -1 80 33q34 34 34 82t-34 80q-32 34 -80 34zM638 865q-48 0 -80 -34q-34 -34 -34 -81q0 -46 34 -80t80 -34q48 0 82 34t33 80q1 47 -33 81t-82 34zM362 574q-48 0 -82 -34t-33 -81q-1 -47 33 -81t82 -34t80 34q34 34 34 81t-34 81q-32 34 -80 34zM0 1389h1134
q59 0 101 -42t42 -102v-1133h-1134q-59 0 -101 42t-42 101v1134z" />
    <glyph glyph-name="uniE017" unicode="&#xe017;" horiz-adv-x="1432" 
d="M843 1168v-293h290v139l299 -276l-299 -254v139h-292v-291h139l-276 -298l-254 298h139v291h-291v-139l-298 254l298 277v-138h291v291h-139l254 298l277 -298h-138z" />
    <glyph glyph-name="uniE018" unicode="&#xe018;" horiz-adv-x="1374" 
d="M686 1013q-108 0 -186 -77t-77 -186q-1 -109 77 -186t187 -77q109 1 186 77t77 186t-78 186q-78 77 -186 77zM561 1437h252l26 -153q52 -14 117 -49l127 91l178 -179l-90 -128q32 -58 48 -117l155 -26v-252l-155 -24q-15 -57 -48 -119l90 -128l-178 -177l-127 90
q-56 -31 -117 -49l-26 -154h-252l-26 153q-54 14 -119 49l-127 -91l-178 178l90 127q-33 62 -48 119l-153 26v252l153 24q15 57 48 119l-90 128l179 177l128 -90q55 31 117 49z" />
    <glyph glyph-name="uniE019" unicode="&#xe019;" horiz-adv-x="1446" 
d="M1280 916q68 0 118 -48q48 -48 48 -118t-48 -118t-118 -48q-68 0 -117 48t-49 118t49 118t117 48zM166 916q68 0 116 -48t49 -118q-1 -70 -49 -118t-116 -48t-118 48q-48 48 -48 118t48 118q50 48 118 48zM723 916q69 0 117 -48t48 -118t-48 -118t-117 -48t-117 48
t-49 118q1 70 49 118t117 48z" />
    <glyph glyph-name="uniE020" unicode="&#xe020;" horiz-adv-x="1531" 
d="M0 1349h1393q57 -1 97 -41t41 -97v-64l-762 -388l-769 389v201zM1531 151h-1393q-58 1 -98 41t-40 97v668l771 -387l760 387v-806z" />
    <glyph glyph-name="uniE021" unicode="&#xe021;" horiz-adv-x="1532" 
d="M967 1385q99 85 231 81t222 -85q90 -82 108 -200q26 -165 -88 -285l-14 -14l-14 -14t-16 -14q-4 -4 -16 -14t-15 -14l-797 -710q-95 -84 -224 -86t-226 80q-161 161 -104 358q26 92 110 168q22 20 52 46q30 25 44 38l457 406q150 135 285 52q62 -38 86 -102t8 -132
q-18 -67 -71 -114l-448 -399q-96 110 -17 181l374 332q32 28 12 62q-20 35 -45 35q-25 -1 -40 -14l-507 -452q-104 -91 -119 -123t-24 -60q-17 -54 21 -108q39 -54 94 -72t109 -2q35 12 267 214t445 396l213 196q38 41 42 98t-24 101t-64 62t-73 16q-38 -1 -89 -7t-88 35
q-2 2 -30 27t-27 37z" />
    <glyph glyph-name="uniE022" unicode="&#xe022;" horiz-adv-x="1310" 
d="M1170 1146q52 0 89 -37l51 -51l-656 -656l-654 655l51 52q37 37 89 37t88 -36l427 -426l426 425q37 37 89 37z" />
    <glyph glyph-name="uniE040" unicode="&#xe040;" horiz-adv-x="1362" 
d="M0 1380h1362v-172h-1362v172zM0 692h1362v-172h-1362v172zM0 1036h1362v-172h-1362v172z" />
    <glyph glyph-name="uniE041" unicode="&#xe041;" horiz-adv-x="1362" 
d="M0 861h1140v-242h-1140v242zM0 339h696v-242h-696v242zM0 1383h1362v-242h-1362v242z" />
    <glyph glyph-name="uniE042" unicode="&#xe042;" horiz-adv-x="1362" 
d="M0 1383h1362v-242h-1362v242zM0 969h1138v-172h-1138v172zM0 697h694v-172h-694v172zM0 339h1362v-242h-1362v242z" />
    <glyph glyph-name="article" unicode="&#xe100;" horiz-adv-x="1160" 
d="M961 954v349h-279v-349h279zM531 1205v100h-332v-100h332zM531 953v100h-332v-100h332zM963 701v100h-764v-100h764zM963 450v99h-764v-99h764zM963 202v99h-764v-99h764zM0 1501h1017q59 -1 101 -43t42 -101v-1357h-1016q-60 0 -102 42t-42 101v1358z" />
    <glyph glyph-name="articleCheck" unicode="&#xe101;" horiz-adv-x="1241" 
d="M961 953v350h-279v-350h279zM531 1204v100h-332v-100h332zM531 953v99h-332v-99h332zM963 701v100h-764v-100h764zM0 1500h1017q59 0 101 -42t42 -101v-812l-250 -250l-155 154h208v100h-764v-100h330l-82 -82l-77 -66h-171v-100h402l-96 96l129 129l268 -267l449 447
q33 34 81 34t82 -34l47 -47l-401 -401v-159h-159l-99 -99l-99 99h-659q-60 0 -102 42t-42 101v1358z" />
    <glyph glyph-name="articleSearch" unicode="&#xe102;" horiz-adv-x="1226" 
d="M961 948v350h-279v-350h279zM531 1200v99h-332v-99h332zM531 948v100h-332v-100h332zM973 696q152 0 252 -100t114 -229q14 -128 -57 -236l-1 -1l245 -245l-41 -42q-29 -29 -70 -29t-69 29l-176 176q-86 -58 -199 -58q-152 0 -260 108q-107 108 -107 260t108 260
q109 107 261 107zM972 540q-87 0 -149 -62q-5 -3 -8 -8q-56 -63 -54 -147t63 -144t148 -60q86 -1 148 61t62 150t-61 148q-62 62 -149 62zM199 544v-100h320q-19 -75 -13 -148h-307v-100h324q33 -113 122 -202h-501q-60 0 -102 42t-42 101v1358h1017q59 0 101 -42t42 -101
v-596q-89 40 -188 40h-773v-100h484q-82 -62 -126 -152h-358z" />
    <glyph glyph-name="uniE500" unicode="&#xe500;" horiz-adv-x="1006" 
d="M0 1181v98q0 19 27 33t67 13l188 17l69 77h295l71 -78l194 -16q39 1 67 -13t28 -33v-98q0 -21 -54 -21l-41 1h-817l-42 -1q-52 0 -52 21zM801 81h-597q-28 0 -47 19t-19 45l-115 879h959l-114 -879q0 -26 -20 -45t-47 -19z" />
    <glyph glyph-name="uniE501" unicode="&#xe501;" horiz-adv-x="1476" 
d="M474 85q-46 -1 -60 45q-8 27 -11 52q-2 24 -3 29l821 820h34l-116 -882q-10 -66 -108 -66l-67 2h-490zM270 1186v98q0 20 28 34t67 13l188 16l68 77h298l70 -77l165 -13l217 219l105 -103l-1361 -1403l-125 125l367 367l-65 491h557l137 136h-621l-43 -1q-52 0 -52 21z
" />
    <glyph glyph-name="uniE502" unicode="&#xe502;" horiz-adv-x="1375" 
d="M1131 630v242h-889v-242h889zM687 1437q139 -1 267 -55t220 -146t146 -219t55 -267q-1 -140 -55 -267t-146 -219t-220 -146t-267 -55q-140 1 -267 55t-219 146q-93 92 -147 219t-54 267t54 267t147 219q92 92 219 146t267 55z" />
    <glyph glyph-name="uniE503" unicode="&#xe503;" horiz-adv-x="1550" 
d="M1192 642v243h-86l232 232q103 -172 96 -377q-6 -205 -114 -359q-108 -153 -266 -231t-334 -72t-326 95l468 469h330zM301 885v-243h179l243 243h-422zM1155 1317l273 274l122 -122l-1429 -1429l-121 122l191 193q-93 127 -121 283t13 308t150 276t273 185q164 60 336 37
q173 -23 313 -127z" />
    <glyph glyph-name="uniE504" unicode="&#xe504;" horiz-adv-x="1005" 
d="M112 131q0 -31 -28 -43t-56 -9l-28 3v1334q146 14 366 -58q86 -28 168 -68t158 -48q188 -21 313 103v-711q-47 -78 -149 -113q-141 -48 -319 56q-270 175 -425 123v-569z" />
    <glyph glyph-name="uniE505" unicode="&#xe505;" horiz-adv-x="1502" 
d="M848 633l564 564v-565q-45 -74 -150 -112q-139 -49 -318 55q-39 28 -96 58zM522 130q0 -30 -28 -42t-56 -9l-27 3v114l111 112v-178zM1073 1242l310 308l119 -119l-1383 -1381l-119 119l413 413v833q185 10 439 -96q146 -61 221 -77z" />
    <glyph glyph-name="uniE506" unicode="&#xe506;" horiz-adv-x="1375" 
d="M1008 746l-501 289v-579zM688 1437q140 -1 267 -55t219 -146t146 -219t55 -267q-1 -140 -55 -267t-146 -219t-219 -146t-267 -55q-140 1 -268 55t-219 146q-93 92 -147 219t-54 267t54 267t147 219q91 92 219 146t268 55z" />
    <glyph glyph-name="uniE507" unicode="&#xe507;" horiz-adv-x="1374" 
d="M944 492v516h-515v-516h515zM710 1437q164 0 322 -92q158 -93 250 -251t92 -344t-92 -344t-250 -251q-158 -92 -322 -92q-164 1 -290 55q-127 54 -219 146q-93 92 -147 219t-54 267t54 267t147 219q92 92 219 146q126 54 290 55z" />
    <glyph glyph-name="uniE508" unicode="&#xe508;" horiz-adv-x="1113" 
d="M729 1039q-1 200 -173 200t-172 -200v-175h345v175zM557 1467q164 1 273 -123t109 -303v-177h174v-771h-970q-59 1 -101 43t-42 101v627h174v177q0 179 110 303t273 123z" />
    <glyph glyph-name="uniE600" unicode="&#xe600;" horiz-adv-x="1100" 
d="M550 1298q80 0 140 -44q114 -84 114 -243t-74 -263t-180 -103q-106 -1 -180 103t-74 263t114 243q60 44 140 44zM1100 725v-623h-975q-53 0 -89 36t-36 89v498h280q36 -73 114 -121t152 -47q75 -1 154 45t120 123h280z" />
    <glyph glyph-name="uniE601" unicode="&#xe601;" horiz-adv-x="1114" 
d="M865 478q19 14 23 36t-10 37q-15 16 -34 17t-33 -12q-59 -58 -155 -78t-191 0q-95 22 -155 80q-14 12 -34 12t-32 -14t-12 -32q0 -20 13 -33q75 -75 191 -103t233 -4t196 94zM391 877q-31 0 -53 -22t-22 -53t22 -53t53 -22t53 22q22 21 22 53t-22 54t-53 21zM723 877
q-31 1 -53 -21t-22 -54t22 -53q22 -22 53 -22t53 22t22 53t-22 53t-53 22zM148 1207h966v-973q0 -49 -24 -81q-47 -60 -124 -60h-966v973q0 49 24 81q48 60 124 60z" />
    <glyph glyph-name="uniE602" unicode="&#xe602;" horiz-adv-x="1114" 
d="M796 740q66 0 112 38t46 90q-57 -54 -158 -54t-158 54q0 -52 46 -90t112 -38zM813 442q15 10 21 29t-2 35q-10 16 -29 21t-35 -5q-88 -53 -208 -52t-207 57q-16 11 -35 7q-20 -4 -30 -21q-10 -16 -6 -35t21 -29q109 -70 253 -72t257 65zM336 740q65 0 111 38t46 90
q-57 -54 -157 -54t-158 54q0 -52 46 -90t112 -38zM148 1207h966v-973q0 -49 -24 -81q-47 -60 -124 -60h-966v973q0 49 24 81q48 60 124 60z" />
    <glyph glyph-name="uniE700" unicode="&#xe700;" horiz-adv-x="1864" 
d="M1504 512l-181 474l-181 -474h362zM422 1460h180v-235h422v-179h-422q44 -171 115 -267q71 -95 171 -191l-66 -175q-205 205 -280 396q-103 -330 -481 -534l-23 68q-16 47 2 93t59 73q147 91 213 197t110 278l7 60h-429v179h422v237zM1342 1165q46 0 83 -26t52 -69
l387 -1090h-180l-120 356h-482l-120 -356h-181l422 1185h139z" />
    <glyph glyph-name="uniE800" unicode="&#xe800;" horiz-adv-x="1520" 
d="M196 362q26 -18 78 -70l1000 906q-27 47 -82 65zM89 403l1108 994q125 -20 221 -123t102 -230l-1110 -997l-410 -44z" />
    <glyph glyph-name="uniE801" unicode="&#xe801;" horiz-adv-x="1520" 
d="M563 1293q325 288 663 146q118 -50 167 -140q-349 -8 -561 -267l112 -169l-571 22l42 576zM196 349q26 -18 78 -70l543 491l317 -11l-173 259q189 191 489 206q65 -135 70 -192l-1110 -998l-410 -44l89 400q51 45 209 188t226 203l147 -3z" />
    <glyph glyph-name="uniE802" unicode="&#xe802;" horiz-adv-x="1575" 
d="M1380 1171q0 101 -87 101t-87 -101v-89h174v89zM1293 1388q83 0 139 -62t55 -154v-90h88v-390h-564v390h88v90q-1 92 55 154t139 62zM914 594h139l-643 -578l-410 -44l89 401l825 739v-131l-718 -650q31 -22 51 -42q19 -20 27 -27l640 579v-247z" />
    <glyph glyph-name="uniE810" unicode="&#xe810;" horiz-adv-x="1836" 
d="M255 1279h1581v-1117q-2 -14 -4 -23t-5 -22t-9 -25t-14 -26q-41 -65 -131 -65h-1673l255 283v995z" />
    <glyph glyph-name="uniE811" unicode="&#xe811;" horiz-adv-x="1888" 
d="M635 889h1066v-729l187 -209h-1135q-82 1 -109 75q-9 25 -9 43v820zM187 1289h1068v-305h-714v-633h-541l187 208v730z" />
    <glyph glyph-name="uniE812" unicode="&#xe812;" horiz-adv-x="1836" 
d="M1132 728v268h-172v-268h-269v-165h269v-279h172v279h270v165h-270zM255 1279h1581v-1117q-2 -14 -4 -23t-5 -22t-9 -25t-14 -26q-41 -65 -131 -65h-1673l255 283v995z" />
    <glyph glyph-name="uniE813" unicode="&#xe813;" horiz-adv-x="1836" 
d="M1250 1035q-38 0 -65 -27t-27 -65t27 -65t65 -27t65 27t27 65t-27 65t-65 27zM869 1035q-39 0 -65 -27t-26 -65t27 -65t65 -27t64 27q27 27 27 65t-27 65t-65 27zM1070 626q-138 0 -271 34t-199 60l-26 11q0 -132 65 -244t177 -177t244 -65t244 65t177 177t65 244
q-236 -105 -476 -105zM255 1279h1581v-1117q-19 -152 -148 -161h-1688l255 285v993z" />
    <glyph glyph-name="uniE820" unicode="&#xe820;" horiz-adv-x="1366" 
d="M336 844q162 134 340 100q122 -22 203 -111q27 -31 25 -72t-32 -69q-63 -56 -72 -62q-17 70 -75 111q-57 41 -129 38t-124 -52l-238 -220q-66 -66 -66 -151t59 -144q131 -131 321 43q33 31 83 17q51 -15 81 -20t86 1q-17 -16 -64 -61t-70 -66q-256 -234 -494 -86
q-142 88 -168 277q-12 83 20 169q30 86 98 148q20 18 92 92t124 118zM930 1306q47 12 118 6q72 -4 148 -52t116 -120q40 -74 52 -157t-20 -169q-30 -86 -98 -148q-20 -18 -92 -92q-139 -142 -240 -192q-102 -48 -224 -26t-203 111q-27 31 -25 72t32 69q63 56 72 62
q17 -70 75 -111q57 -41 129 -38t124 52l238 220q66 66 66 151t-59 144q-101 103 -247 14q-38 -23 -65 -49q-28 -27 -49 -29t-78 15t-132 8q17 16 64 61t70 66t68 55q45 33 79 49t81 28z" />
    <glyph glyph-name="uniE830" unicode="&#xe830;" horiz-adv-x="1494" 
d="M660 1141q0 -45 -26 -81t-68 -54q-103 -39 -176 -124t-101 -195h371v-512q0 -61 -44 -105t-105 -44h-511v353q3 197 43 351q41 154 135 266q94 111 202 170t280 88v-113zM1494 1141q0 -45 -26 -81t-68 -54q-104 -39 -176 -124t-101 -195h371v-512q0 -61 -44 -105
t-105 -44h-511v353q6 313 94 489q38 76 108 157q151 177 458 229v-113z" />
    <glyph glyph-name="uniE831" unicode="&#xe831;" horiz-adv-x="1571" 
d="M1328 1536h172v-268h271v-165h-271v-279h-172v279h-269v165h269v268zM1226 1003v-120q-72 -81 -103 -198h371v-512q0 -61 -44 -105t-105 -44h-511v336q2 203 40 360t146 283h206zM660 1139q0 -45 -26 -82t-68 -53q-103 -39 -176 -124t-101 -195h371v-512q0 -61 -44 -105
t-105 -44h-511v353q3 197 43 351q41 154 135 266q94 110 202 170t280 87v-112z" />
    <glyph glyph-name="uniE840" unicode="&#xe840;" horiz-adv-x="1727" 
d="M1281 350v655h-872v-655h872zM500 441l218 291l200 -200l109 91l163 -182h-690zM0 1297h1727v-1294h-1727v1294z" />
    <glyph glyph-name="uniE841" unicode="&#xe841;" horiz-adv-x="1841" 
d="M1746 1205q0 101 -87 101t-87 -101v-89h174v89zM1659 1421q63 1 113 -39q88 -70 82 -236v-30h87v-391h-564v391h84q-1 114 17 170t68 96t113 39zM1483 187v1l-301 265l-200 -119l-368 385l-60 -24l-389 -508h1318zM0 19v1276h1379q-15 -39 -16 -77h-88v-594h386v-605
h-1661z" />
    <glyph glyph-name="uniE842" unicode="&#xe842;" horiz-adv-x="1738" 
d="M1496 1553h171v-268h271v-164h-271v-279h-171v279h-269v164h269v268zM981 322l-368 385l-59 -24l-389 -508l1317 1l-301 265zM0 7v1276h1121v-267h269v-269h270v-740h-1660z" />
    <glyph glyph-name="uniE843" unicode="&#xe843;" horiz-adv-x="1286" 
d="M955 835v487h-650v-487h650zM372 902l163 217l149 -149l81 68l122 -136h-515zM0 1540h1286v-2048h-1286v2048z" />
    <glyph glyph-name="uniE844" unicode="&#xe844;" horiz-adv-x="1727" 
d="M1258 894h-460l-108 107h-270v-567l81 -82h757v542zM1727 1297v-1294h-1727v1294h1727z" />
    <glyph glyph-name="uniE845" unicode="&#xe845;" horiz-adv-x="1286" 
d="M313 1319v-422l61 -61h563v403h-342l-81 80h-201zM0 1540h1286v-2048h-1286v2048z" />
    <glyph glyph-name="uniE900" unicode="&#xe900;" horiz-adv-x="2017" 
d="M1635 889l105 57l76 -143l144 76l57 -108l-144 -76l76 -141l-105 -57l-76 141l-144 -74l-57 106l144 76zM1262 811l64 155q102 -47 207 -77l-51 -160q-127 39 -220 82zM950 949l66 155q104 -43 210 -94l-68 -155zM578 1300q64 52 146 46q82 -8 136 -72t46 -148
q-8 -82 -73 -135t-147 -45t-136 71q-52 63 -44 147t72 136zM401 1232v-168q-103 -3 -170 -51l-95 140q117 76 265 79zM33 1006l154 -69q-32 -85 -4 -157l-158 -59q-53 150 8 285zM105 585l124 112q54 -60 156 -155l-114 -124q-120 113 -166 167zM664 530q77 -8 139 -52
q63 -44 95 -114t25 -146q-11 -118 -103 -194t-209 -64q-77 8 -139 52t-94 114t-26 146q10 118 102 194t210 64z" />
  </font>
</defs>
</svg>
